<?xml version="1.0" encoding="UTF-8"?>
<svg id="_레이어_1" data-name="레이어 1" xmlns="http://www.w3.org/2000/svg" viewBox="0 0 1920 3670">
  <defs>
    <style>
      .cls-1 {
        fill: none;
        stroke: #707070;
        stroke-miterlimit: 10;
        stroke-width: 2px;
      }
    </style>
  </defs>
  <path className="cls-1" d="M719.04,459.68h-80.32v-80.32h80.32v80.32Zm0,0h-80.32v80.32h80.32v-80.32Zm0,80.32h-80.32v80.32h80.32v-80.32Zm0,80.32h-80.32v80.32h80.32v-80.32Zm80.32-240.96h-80.32v80.32h80.32v-80.32Zm0,80.32h-80.32v80.32h80.32v-80.32Zm0,80.32h-80.32v80.32h80.32v-80.32Zm0,80.32h-80.32v80.32h80.32v-80.32Zm80.32-240.96h-80.32v80.32h80.32v-80.32Zm0,80.32h-80.32v80.32h80.32v-80.32Zm0,80.32h-80.32v80.32h80.32v-80.32Zm0,80.32h-80.32v80.32h80.32v-80.32Zm80.32-240.96h-80.32v80.32h80.32v-80.32Zm0,80.32h-80.32v80.32h80.32v-80.32Zm0,80.32h-80.32v80.32h80.32v-80.32Zm0,80.32h-80.32v80.32h80.32v-80.32Zm80.32-240.96h-80.32v80.32h80.32v-80.32Zm0,80.32h-80.32v80.32h80.32v-80.32Zm0,80.32h-80.32v80.32h80.32v-80.32Zm0,80.32h-80.32v80.32h80.32v-80.32Zm80.32-240.96h-80.32v80.32h80.32v-80.32Zm0,80.32h-80.32v80.32h80.32v-80.32Zm0,80.32h-80.32v80.32h80.32v-80.32Zm0,80.32h-80.32v80.32h80.32v-80.32Zm80.32-240.96h-80.32v80.32h80.32v-80.32Zm0,80.32h-80.32v80.32h80.32v-80.32Zm0,80.32h-80.32v80.32h80.32v-80.32Zm0,80.32h-80.32v80.32h80.32v-80.32Zm80.32-240.96h-80.32v80.32h80.32v-80.32Zm0,80.32h-80.32v80.32h80.32v-80.32Zm0,80.32h-80.32v80.32h80.32v-80.32Zm0,80.32h-80.32v80.32h80.32v-80.32Zm-642.57-160.64L0,285.08m0,509.84l638.72-174.6m0-80.32H0m1281.28,80.32l638.72,174.6m0-509.84l-638.72,174.6m0,80.32h638.72m-960-160.64V0m-80.32,379.36L721.76,0m77.59,379.36L462.48,0m256.56,379.36L195.4,0m443.31,379.36L0,60M1198.24,0l-157.91,379.36m80.32,0L1457.52,0m-256.56,379.36L1724.6,0M960,700.64v379.36m-80.32-379.36l-157.91,379.36m77.59-379.36l-336.88,379.36m256.56-379.36L195.4,1080m844.92-379.36l157.91,379.36m-77.59-379.36l336.88,379.36m-256.56-379.36l523.63,379.36m-443.31-700.64L1920,60m0,960l-638.72-319.36m-642.57,0L0,1020M1281.28,379.36H638.72v321.28h642.57V379.36Zm32.02-16.01H606.69v353.31h706.61V363.35Zm45.49-22.75H561.2v398.8h797.6V340.6Zm62.57-31.29H498.63v461.37h922.74V309.32Zm81.42-40.71H417.21V811.39H1502.79V268.61Zm119.34-59.67H297.87V871.06H1622.13V208.94Zm162.38-81.19H135.49V952.26H1784.51V127.74ZM1920,0H0V1080H1920V0ZM960,1080v300m-238.24-300v300m-259.28-300v300m-267.08-300v300m1002.83-300v300m259.28-300v300m267.08-300v300m-764.6,45.29v512.19m-238.24-512.19v512.19m-259.28-512.19v512.19M195.4,1425.29v512.19m1002.83-512.19v512.19m259.28-512.19v512.19m267.08-512.19v512.19m259.88-512.19h446.69M960,1937.53v223.34m238.24-223.39l105.65,223.39m153.64-223.39l208.77,223.39m58.3-223.39l310.97,223.39m-70.38-223.34l465.98,223.34m0-357.36l-465.98-122.11H-45.18s-465.98,122.11-465.98,122.11M-64.47,1425.29H-511.16M960,1937.53v223.34m-238.24-223.39l-105.65,223.39m-153.64-223.39l-208.77,223.39m-58.3-223.39l-310.97,223.39m70.38-223.39l-466.01,223.39M1965.18,1425.29H-45.18v512.19H1965.18v-512.19Zm106.52,0H-151.7v563.29H2071.7v-563.29Zm151.32,0H-303.02v635.82H2223.02v-635.82Zm208.14,0H-511.16v735.58H2431.16v-735.58Zm-1471.16,735.58v716.13m343.88-716.13v716.13m-687.77-716.13v716.13m-362.41-716.13v716.13m1412.58-716.13v716.13"/>
</svg>