<?xml version="1.0" encoding="UTF-8"?>
<svg id="_레이어_1" data-name="레이어 1" xmlns="http://www.w3.org/2000/svg" viewBox="0 0 1920 1080">
  <defs>
    <style>
      .cls-1 {
        fill: none;
        stroke: #707070;
        stroke-miterlimit: 10;
        stroke-width: 2px;
      }
    </style>
  </defs>
  <g>
    <rect className="cls-1" x="635.97" y="378.62" width="80.94" height="80.94"/>
    <rect className="cls-1" x="635.97" y="459.56" width="80.94" height="80.94"/>
    <rect className="cls-1" x="635.97" y="540.49" width="80.94" height="80.94"/>
    <rect className="cls-1" x="635.97" y="621.43" width="80.94" height="80.94"/>
    <rect className="cls-1" x="716.91" y="378.62" width="80.94" height="80.94"/>
    <rect className="cls-1" x="716.91" y="459.56" width="80.94" height="80.94"/>
    <rect className="cls-1" x="716.91" y="540.49" width="80.94" height="80.94"/>
    <rect className="cls-1" x="716.91" y="621.43" width="80.94" height="80.94"/>
    <rect className="cls-1" x="797.85" y="378.62" width="80.94" height="80.94"/>
    <rect className="cls-1" x="797.85" y="459.56" width="80.94" height="80.94"/>
    <rect className="cls-1" x="797.85" y="540.49" width="80.94" height="80.94"/>
    <rect className="cls-1" x="797.85" y="621.43" width="80.94" height="80.94"/>
    <rect className="cls-1" x="878.78" y="378.62" width="80.94" height="80.94"/>
    <rect className="cls-1" x="878.78" y="459.56" width="80.94" height="80.94"/>
    <rect className="cls-1" x="878.78" y="540.49" width="80.94" height="80.94"/>
    <rect className="cls-1" x="878.78" y="621.43" width="80.94" height="80.94"/>
    <rect className="cls-1" x="959.72" y="378.62" width="80.94" height="80.94"/>
    <rect className="cls-1" x="959.72" y="459.56" width="80.94" height="80.94"/>
    <rect className="cls-1" x="959.72" y="540.49" width="80.94" height="80.94"/>
    <rect className="cls-1" x="959.72" y="621.43" width="80.94" height="80.94"/>
    <rect className="cls-1" x="1040.66" y="378.62" width="80.94" height="80.94"/>
    <rect className="cls-1" x="1040.66" y="459.56" width="80.94" height="80.94"/>
    <rect className="cls-1" x="1040.66" y="540.49" width="80.94" height="80.94"/>
    <rect className="cls-1" x="1040.66" y="621.43" width="80.94" height="80.94"/>
    <rect className="cls-1" x="1121.59" y="378.62" width="80.94" height="80.94"/>
    <rect className="cls-1" x="1121.59" y="459.56" width="80.94" height="80.94"/>
    <rect className="cls-1" x="1121.59" y="540.49" width="80.94" height="80.94"/>
    <rect className="cls-1" x="1121.59" y="621.43" width="80.94" height="80.94"/>
    <rect className="cls-1" x="1202.53" y="378.62" width="80.94" height="80.94"/>
    <rect className="cls-1" x="1202.53" y="459.56" width="80.94" height="80.94"/>
    <rect className="cls-1" x="1202.53" y="540.49" width="80.94" height="80.94"/>
    <rect className="cls-1" x="1202.53" y="621.43" width="80.94" height="80.94"/>
  </g>
  <line className="cls-1" x1="635.97" y1="459.56" x2="-7.64" y2="283.62"/>
  <line className="cls-1" x1="-7.64" y1="797.37" x2="635.97" y2="621.43"/>
  <line className="cls-1" x1="635.97" y1="540.49" x2="-7.64" y2="540.49"/>
  <line className="cls-1" x1="1283.47" y1="621.43" x2="1927.08" y2="797.37"/>
  <line className="cls-1" x1="1927.08" y1="283.62" x2="1283.47" y2="459.56"/>
  <line className="cls-1" x1="1283.47" y1="540.49" x2="1927.08" y2="540.49"/>
  <line className="cls-1" x1="959.72" y1="378.62" x2="959.72" y2="-3.65"/>
  <line className="cls-1" x1="878.78" y1="378.62" x2="719.66" y2="-3.65"/>
  <line className="cls-1" x1="797.85" y1="378.62" x2="458.39" y2="-3.65"/>
  <line className="cls-1" x1="716.91" y1="378.62" x2="189.27" y2="-3.65"/>
  <line className="cls-1" x1="635.97" y1="378.62" x2="-7.64" y2="56.81"/>
  <line className="cls-1" x1="1040.66" y1="378.62" x2="1199.78" y2="-3.65"/>
  <line className="cls-1" x1="1121.59" y1="378.62" x2="1461.05" y2="-3.65"/>
  <line className="cls-1" x1="1202.53" y1="378.62" x2="1730.18" y2="-3.65"/>
  <line className="cls-1" x1="959.72" y1="702.37" x2="959.72" y2="1084.63"/>
  <line className="cls-1" x1="878.78" y1="702.37" x2="719.66" y2="1084.63"/>
  <line className="cls-1" x1="797.85" y1="702.37" x2="458.39" y2="1084.63"/>
  <line className="cls-1" x1="716.91" y1="702.37" x2="189.27" y2="1084.63"/>
  <line className="cls-1" x1="1040.66" y1="702.37" x2="1199.78" y2="1084.63"/>
  <line className="cls-1" x1="1121.59" y1="702.37" x2="1461.05" y2="1084.63"/>
  <line className="cls-1" x1="1202.53" y1="702.37" x2="1730.18" y2="1084.63"/>
  <line className="cls-1" x1="1283.47" y1="378.62" x2="1927.08" y2="56.81"/>
  <line className="cls-1" x1="1283.47" y1="702.37" x2="1927.08" y2="1024.17"/>
  <line className="cls-1" x1="635.97" y1="702.37" x2="-7.64" y2="1024.17"/>
  <rect className="cls-1" x="635.97" y="378.62" width="647.49" height="323.75"/>
  <rect className="cls-1" x="603.71" y="362.49" width="712.03" height="356.02"/>
  <rect className="cls-1" x="557.87" y="339.57" width="803.71" height="401.86"/>
  <rect className="cls-1" x="494.82" y="308.04" width="929.81" height="464.91"/>
  <rect className="cls-1" x="412.77" y="267.02" width="1093.89" height="546.95"/>
  <rect className="cls-1" x="292.52" y="206.89" width="1334.41" height="667.21"/>
  <rect className="cls-1" x="128.89" y="125.08" width="1661.66" height="830.83"/>
</svg>