<?xml version="1.0" encoding="UTF-8"?><svg id="_이어_2" xmlns="http://www.w3.org/2000/svg" viewBox="0 0 382.97 818.29"><defs><style>.cls-1{fill:none;stroke:#707070;stroke-miterlimit:10;stroke-width:2px;}</style></defs><g id="_이어_1-2"><path className="cls-1" d="M.39,281.04H63.72v63.98H.39m0,63.98H63.72v-63.98H.39m0,127.97H63.72v-63.98H.39m0,127.97H63.72v-63.98H.39m127.31-191.95H63.72v63.98h63.98v-63.98Zm0,63.98H63.72v63.98h63.98v-63.98Zm0,63.98H63.72v63.98h63.98v-63.98Zm0,63.98H63.72v63.98h63.98v-63.98Zm63.98-191.95h-63.98v63.98h63.98v-63.98Zm0,63.98h-63.98v63.98h63.98v-63.98Zm0,63.98h-63.98v63.98h63.98v-63.98Zm0,63.98h-63.98v63.98h63.98v-63.98Zm63.98-191.95h-63.98v63.98h63.98v-63.98Zm0,63.98h-63.98v63.98h63.98v-63.98Zm0,63.98h-63.98v63.98h63.98v-63.98Zm0,63.98h-63.98v63.98h63.98v-63.98Zm63.98-191.95h-63.98v63.98h63.98v-63.98Zm0,63.98h-63.98v63.98h63.98v-63.98Zm0,63.98h-63.98v63.98h63.98v-63.98Zm0,63.98h-63.98v63.98h63.98v-63.98Zm63.32-191.95h-63.32v63.98h63.32m0,0h-63.32v63.98h63.32m0,0h-63.32v63.98h63.32m0,0h-63.32v63.98h63.32m-191.28-255.93V.68M10.87,.38L127.7,281.04M.75,210.13l62.97,70.91M372.47,.45l-116.8,280.59m126.52-70.43l-62.54,70.43m-127.97,255.93v280.77m-63.98-280.77L10.76,817.91m52.96-280.94L1.91,606.58m370.35,210.48l-116.59-280.09m63.98,0l61.38,69.12m1.94-325.05H.39m0,255.93H382.97m0-268.69H.39M.39,549.73H382.97m0-299.56H.39M.39,567.85H382.97m0-342.6H.39M.39,592.77H382.97m0-399.95H.39M.39,625.2H382.97m0-479.91H.39M.39,672.73H382.97m0-592.12H.39M.39,737.41H382.97"/></g></svg>